<?xml version="1.0" encoding="UTF-8" standalone="no"?>
<!-- Generator: Adobe Illustrator 19.2.1, SVG Export Plug-In . SVG Version: 6.00 Build 0)  -->

<svg
   version="1.1"
   id="Layer_1"
   x="0px"
   y="0px"
   viewBox="0 0 104 112"
   xml:space="preserve"
   sodipodi:docname="idr-mark.svg"
   inkscape:version="1.1.1 (c3084ef, 2021-09-22)"
   width="104"
   height="112"
   xmlns:inkscape="http://www.inkscape.org/namespaces/inkscape"
   xmlns:sodipodi="http://sodipodi.sourceforge.net/DTD/sodipodi-0.dtd"
   xmlns="http://www.w3.org/2000/svg"
   xmlns:svg="http://www.w3.org/2000/svg"><defs
   id="defs1576" /><sodipodi:namedview
   id="namedview1574"
   pagecolor="#ffffff"
   bordercolor="#666666"
   borderopacity="1.0"
   inkscape:pageshadow="2"
   inkscape:pageopacity="0.0"
   inkscape:pagecheckerboard="0"
   showgrid="false"
   inkscape:zoom="3.7538995"
   inkscape:cx="63.667128"
   inkscape:cy="59.271699"
   inkscape:window-width="1296"
   inkscape:window-height="1081"
   inkscape:window-x="193"
   inkscape:window-y="111"
   inkscape:window-maximized="0"
   inkscape:current-layer="Layer_1"
   fit-margin-top="0"
   fit-margin-left="0"
   fit-margin-right="0"
   fit-margin-bottom="0" />
<style
   type="text/css"
   id="style1547">
	.st0{fill:#1976D2;}
	.st1{fill:#FF9800;}
	.st2{fill:#F44336;}
	.st3{fill:#9C27B0;}
	.st4{fill:#FFC107;}
</style>
<g
   id="text">

</g>
<g
   id="logomark">
	<g
   id="g1570">
		<path
   class="st1"
   d="M 40,64 H 8 C 3.6,64 0,60.4 0,56 v 0 c 0,-4.4 3.6,-8 8,-8 h 32 c 4.4,0 8,3.6 8,8 v 0 c 0,4.4 -3.6,8 -8,8 z"
   id="path1558" />
		<path
   class="st1"
   d="M 96,64 H 64 c -4.4,0 -8,-3.6 -8,-8 v 0 c 0,-4.4 3.6,-8 8,-8 h 32 c 4.4,0 8,3.6 8,8 v 0 c 0,4.4 -3.6,8 -8,8 z"
   id="path1560" />
		<path
   class="st2"
   d="M 80,40 H 24 c -4.4,0 -8,-3.6 -8,-8 v 0 c 0,-4.4 3.6,-8 8,-8 h 56 c 4.4,0 8,3.6 8,8 v 0 c 0,4.4 -3.6,8 -8,8 z"
   id="path1562" />
		<path
   class="st0"
   d="M 80,88 H 24 c -4.4,0 -8,-3.6 -8,-8 v 0 c 0,-4.4 3.6,-8 8,-8 h 56 c 4.4,0 8,3.6 8,8 v 0 c 0,4.4 -3.6,8 -8,8 z"
   id="path1564" />
		<path
   class="st3"
   d="M 64,16 H 40 c -4.4,0 -8,-3.6 -8,-8 v 0 c 0,-4.4 3.6,-8 8,-8 h 24 c 4.4,0 8,3.6 8,8 v 0 c 0,4.4 -3.6,8 -8,8 z"
   id="path1566" />
		<path
   class="st4"
   d="M 64,112 H 40 c -4.4,0 -8,-3.6 -8,-8 v 0 c 0,-4.4 3.6,-8 8,-8 h 24 c 4.4,0 8,3.6 8,8 v 0 c 0,4.4 -3.6,8 -8,8 z"
   id="path1568" />
	</g>
</g>
</svg>
