<?xml version="1.0" encoding="UTF-8" standalone="no"?>
<svg
   width="420"
   height="420"
   stroke="#000"
   fill="none"
   version="1.1"
   id="svg2"
   sodipodi:docname="external-data.svg"
   inkscape:version="1.3 (0e150ed6c4, 2023-07-21)"
   xmlns:inkscape="http://www.inkscape.org/namespaces/inkscape"
   xmlns:sodipodi="http://sodipodi.sourceforge.net/DTD/sodipodi-0.dtd"
   xmlns="http://www.w3.org/2000/svg"
   xmlns:svg="http://www.w3.org/2000/svg">
  <defs
     id="defs2">
    <marker
       style="overflow:visible"
       id="ArrowTriangleStylized"
       refX="0"
       refY="0"
       orient="auto-start-reverse"
       inkscape:stockid="Stylized triangle arrow"
       markerWidth="1"
       markerHeight="1"
       viewBox="0 0 1 1"
       inkscape:isstock="true"
       inkscape:collect="always"
       preserveAspectRatio="xMidYMid">
      <path
         transform="scale(0.5)"
         style="fill:context-stroke;fill-rule:evenodd;stroke:context-stroke;stroke-width:1pt"
         d="m 6,0 c -3,1 -7,3 -9,5 0,0 0,-4 2,-5 -2,-1 -2,-5 -2,-5 2,2 6,4 9,5 z"
         id="path4" />
    </marker>
  </defs>
  <sodipodi:namedview
     id="namedview2"
     pagecolor="#ffffff"
     bordercolor="#000000"
     borderopacity="0.25"
     inkscape:showpageshadow="2"
     inkscape:pageopacity="0.0"
     inkscape:pagecheckerboard="0"
     inkscape:deskcolor="#d1d1d1"
     inkscape:zoom="0.34218917"
     inkscape:cx="14.611801"
     inkscape:cy="121.27795"
     inkscape:window-width="1920"
     inkscape:window-height="1009"
     inkscape:window-x="-8"
     inkscape:window-y="-8"
     inkscape:window-maximized="1"
     inkscape:current-layer="svg2" />
  <path
     stroke-width="26"
     d="M209,15a195,195 0 1,0 2,0z"
     id="path1"
     style="opacity:1;stroke:#79bebb;stroke-opacity:1" />
  <path
     stroke-width="18"
     d="m210,15v390m195-195H15M59,90a260,260 0 0,0 302,0 m0,240 a260,260 0 0,0-302,0M195,20a250,250 0 0,0 0,382 m30,0 a250,250 0 0,0 0-382"
     id="path2"
     style="opacity:1;stroke:#79bebb;stroke-opacity:1" />
  <path
     style="fill:#0000ff;stroke:#3433ff;stroke-width:29.8024;stroke-dasharray:none;stroke-opacity:1;marker-end:url(#ArrowTriangleStylized)"
     d="M 90.105039,320.35059 271.28301,152.77079"
     id="path3" />
</svg>
